<?xml version="1.0" encoding="UTF-8" standalone="no"?>
<svg
   version="1.1"
   id="svg4"
   viewBox="0 0 595.27557 841.88977"
   >
  <defs
     id="defs8" />
  <path
     d="m 297.4204,292.989 c 1.7093,0.0267 3.6086,-0.0309 5.392,-0.0309 29.0025,0 58.1199,2.7046 86.6044,7.9984 28.4845,5.2944 -0.3694,-6.3073 -1.4911,-15.9527 -0.211,-1.7682 -2.1639,-15.6231 -2.1639,-15.6231 -3.5496,-22.2869 -10.2923,-51.079 -22.6826,-68.0874 0,0 -7.495,-12.3639 -22.3394,-15.003 -16.0587,-2.8635 -39.691,3.9586 -43.333,3.9586 -3.6419,0 -27.2613,-6.8616 -43.3332,-3.9586 -14.8175,2.6674 -22.3261,15.0314 -22.3261,15.0314 -12.3769,17.0088 -19.133,45.8005 -22.6824,68.0872 8.1153,-5.7135 33.9514,-20.1889 85.1092,-18.3809 v 8.2468 c 0,0 -50.551,-5.5814 -86.5606,20.136 -1.6889,12.7468 -2.1904,21.5742 -2.1904,21.5742 28.5609,-5.2657 57.5535,-8.0269 86.6035,-8.0269 1.7833,0 3.6817,0.0576 5.4074,0.0576 z m 82.866,112.2911 h -5.0012 v 4.13 h 5.4233 c 0,0 10.7541,-9.1313 22.5902,-26.4696 7.2835,-10.6617 10.6486,-22.1945 11.3349,-28.647 23.4634,-6.1998 40.8234,-15.2001 61.9282,-26.2793 3.8312,-2.0112 5.061,-4.6115 4.8789,-6.835 -0.1762,-2.1514 -1.6358,-3.9517 -5.728,-4.525 -21.3154,-2.9853 -65.1237,-0.6691 -88.0154,0.6643 l -90.3081,1.6628 -74.2184,0.002 c -36.5902,-0.3299 -104.7566,8.3905 -104.7566,8.3905 0,0 -5.0012,0.5807 -5.0012,3.8266 0,3.2459 3.6684,5.0933 3.6684,5.0933 17.4177,13.1952 66.3324,23.2384 66.3324,23.2384 l 0.3165,0.7521 c 0.1718,4.5788 1.808,12.1395 8.6826,22.2073 11.8758,17.3387 22.5902,26.4697 22.5902,26.4697 h 5.4098 v -4.1297 h -4.9877 c -9.5007,-6.2547 -18.711,-21.5479 -18.711,-21.5479 l 22.432,7.9171 7.7457,-7.0464 45.5103,18.4734 -13.7363,37.791 19.5027,-22.7616 v -12.496 l 19.2518,-24.0021 v 39.256 c 0,0 -1.2401,1.8737 -3.8265,-0.8314 -4.0908,-6.7163 -9.9624,-3.9587 -9.9624,-1.6362 0,3.0086 3.2062,3.4704 6.5976,3.3383 4.5618,1.5908 9.0486,3.4875 13.3797,5.6245 v 7.5082 l -2.8236,3.8761 v 9.3684 l -24.3715,1.2536 16.9164,2.5335 4.9614,3.9587 h 4.2092 v 6.5052 h -13.829 l -6.8744,4.5391 10.3713,8.6693 10.345,-10e-5 v 8.7088 l -7.3366,15.2537 c 0,0 -4.6316,0.8709 -12.8784,-2.8765 0,0 -16.626,-2.2563 -38.2659,-32.6315 0,0 -17.0484,-17.3255 -21.957,-39.5859 l -37.6723,35.6269 -2.9953,11.9946 -67.9951,32.3944 70.3438,-14.6733 16.9953,67.6651 41.3406,6.3335 -9.0123,45.6688 64.34,47.3445 64.3397,-47.3445 -8.9993,-45.6688 41.3408,-6.3335 16.9955,-67.6651 70.3436,14.6733 -68.0083,-32.3417 -3.0083,-11.9946 -37.6592,-35.6269 -0.4353,4.3016 c -3.4307,21.2178 -24.7411,38.2661 -24.7411,38.2661 4.6708,-26.8257 19.3443,-61.6612 19.5026,-80.4116 l 9.3422,-3.589 v 14.0795 c 18.6578,-10.5566 21.9965,-38.4115 21.9965,-38.4115 4.8294,-1.0028 9.5136,-2.1113 14.0265,-3.2856 -1.1084,4.3148 -4.1828,14.9238 -9.3555,23.2895 -3.6287,5.2649 -13.3137,20.7429 -22.8144,26.9974 z m -87.194,194.3921 -78.0103,-135.0133 78.0103,107.3428 z M 379.7582,464.6589 301.7617,599.6722 V 571.962 Z m -19.2513,-6.5977 c 5.1336,-5.0931 8.8248,-11.482 10.673,-18.4721 l -1.425,14.1057 -72.3345,86.4801 -72.3363,-86.5077 -2.2695,-22.432 c 3.2722,21.4818 15.214,28.3696 25.9417,43.465 11.8757,16.6789 23.3292,22.6692 23.3292,22.6692 2.7181,2.2697 23.3951,9.8439 34.677,6.1753 3.6684,-1.5041 7.0728,-2.6388 17.2461,-6.5973 10.1734,-3.959 14.7522,-12.6678 17.84,-16.4282 3.0879,-3.7607 18.6583,-22.4319 18.6583,-22.4319 z m -78.05,-221.469 c -4.7898,7.3104 -16.4148,5.5553 -22.6559,8.432 -6.2414,2.8767 -14.4357,6.5714 -22.9995,6.5714 -8.5637,0 -13.6307,-3.959 -13.6307,-11.5066 0,-7.5475 4.2488,-19.4364 4.2488,-19.4364 0,0 0.7521,6.6635 10.2527,4.6712 9.5005,-1.9928 18.7503,-12.087 18.7503,-12.087 0,0 8.4976,-7.9171 7.2443,-22.4321 0,0 -16.2435,1.1219 -33.2519,23.2502 2.1755,-5.6765 5.4198,-10.9146 9.5247,-15.3981 2.9971,-3.2734 13.3377,-12.0623 31.3358,-8.6581 5.0967,1.0094 23.1187,3.6538 23.1187,3.6538 -0.3555,7.6343 -2.5246,31.9056 -11.9373,42.9397 z"
     id="path2" />
</svg>
